<svg width="13" height="12" viewBox="0 0 13 12" fill="none" xmlns="http://www.w3.org/2000/svg">
<path d="M0.75 4.77295C0.335786 4.77295 3.62117e-08 5.10874 0 5.52295C-3.62117e-08 5.93716 0.335786 6.27295 0.75 6.27295L0.75 5.52295L0.75 4.77295ZM12.2803 6.05328C12.5732 5.76039 12.5732 5.28551 12.2803 4.99262L7.50736 0.219649C7.21447 -0.0732445 6.73959 -0.0732445 6.4467 0.219649C6.15381 0.512542 6.15381 0.987416 6.4467 1.28031L10.6893 5.52295L6.4467 9.76559C6.15381 10.0585 6.15381 10.5334 6.4467 10.8263C6.73959 11.1191 7.21447 11.1191 7.50736 10.8263L12.2803 6.05328ZM0.75 5.52295L0.75 6.27295L11.75 6.27295L11.75 5.52295L11.75 4.77295L0.75 4.77295L0.75 5.52295Z" fill="white"/>
</svg>
