<svg width="13" height="12" viewBox="0 0 13 12" fill="none" xmlns="http://www.w3.org/2000/svg">
<path d="M11.75 4.77295C12.1642 4.77295 12.5 5.10874 12.5 5.52295C12.5 5.93716 12.1642 6.27295 11.75 6.27295L11.75 5.52295L11.75 4.77295ZM0.21967 6.05328C-0.0732231 5.76039 -0.0732231 5.28551 0.21967 4.99262L4.99264 0.219649C5.28553 -0.0732445 5.76041 -0.0732445 6.0533 0.219649C6.34619 0.512542 6.34619 0.987416 6.0533 1.28031L1.81066 5.52295L6.0533 9.76559C6.34619 10.0585 6.34619 10.5334 6.0533 10.8263C5.76041 11.1191 5.28553 11.1191 4.99264 10.8263L0.21967 6.05328ZM11.75 5.52295L11.75 6.27295L0.75 6.27295L0.75 5.52295L0.75 4.77295L11.75 4.77295L11.75 5.52295Z" fill="white"/>
</svg>
