<svg width="10" height="10" viewBox="0 0 10 10" fill="none" xmlns="http://www.w3.org/2000/svg">
<path d="M0.21967 7.99799C-0.0732233 8.29088 -0.0732233 8.76576 0.21967 9.05865C0.512563 9.35154 0.987437 9.35154 1.28033 9.05865L0.75 8.52832L0.21967 7.99799ZM9.27817 0.750146C9.27817 0.335932 8.94239 0.000145865 8.52817 0.000145865H1.77817C1.36396 0.000145865 1.02817 0.335932 1.02817 0.750146C1.02817 1.16436 1.36396 1.50015 1.77817 1.50015H7.77817V7.50015C7.77817 7.91436 8.11396 8.25015 8.52817 8.25015C8.94239 8.25015 9.27817 7.91436 9.27817 7.50015V0.750146ZM0.75 8.52832L1.28033 9.05865L9.0585 1.28048L8.52817 0.750146L7.99784 0.219816L0.21967 7.99799L0.75 8.52832Z" fill="#212121"/>
</svg>
