<svg width="10" height="10" viewBox="0 0 10 10" fill="none" xmlns="http://www.w3.org/2000/svg">
<path d="M0.21967 7.99775C-0.0732233 8.29064 -0.0732233 8.76551 0.21967 9.05841C0.512563 9.3513 0.987437 9.3513 1.28033 9.05841L0.75 8.52808L0.21967 7.99775ZM9.27817 0.749902C9.27817 0.335688 8.94239 -9.82752e-05 8.52817 -9.82752e-05H1.77817C1.36396 -9.82752e-05 1.02817 0.335688 1.02817 0.749902C1.02817 1.16412 1.36396 1.4999 1.77817 1.4999H7.77817V7.4999C7.77817 7.91412 8.11396 8.2499 8.52817 8.2499C8.94239 8.2499 9.27817 7.91412 9.27817 7.4999V0.749902ZM0.75 8.52808L1.28033 9.05841L9.0585 1.28023L8.52817 0.749902L7.99784 0.219572L0.21967 7.99775L0.75 8.52808Z" fill="#212121"/>
</svg>
