<svg width="18" height="19" viewBox="0 0 18 19" fill="none" xmlns="http://www.w3.org/2000/svg">
<path d="M0.999999 4.0361L0.999998 1.90712C0.999998 1.65514 1.08974 1.44096 1.26923 1.26458C1.44872 1.08819 1.66667 1 1.92308 1L16.0769 1C16.3333 1 16.5513 1.08819 16.7308 1.26458C16.9103 1.44096 17 1.65514 17 1.90711L17 4.03609C17 4.28807 16.9103 4.50225 16.7308 4.67863C16.5513 4.85502 16.3333 4.94321 16.0769 4.94321L12.658 4.94321C12.2442 4.94321 11.8921 4.66519 11.6132 4.3572C11.5195 4.25382 11.4129 4.15938 11.2933 4.07389C10.976 3.84711 10.6218 3.73372 10.2308 3.73372L7.76923 3.73372C7.3782 3.73372 7.02404 3.84711 6.70673 4.07389C6.58712 4.15938 6.48049 4.25382 6.38683 4.35721C6.10785 4.66519 5.75582 4.94321 5.34205 4.94321L1.92308 4.94321C1.66667 4.94321 1.44872 4.85502 1.26923 4.67863C1.08974 4.50225 0.999999 4.28807 0.999999 4.0361ZM4.25032 12.9353C4.3593 12.6833 4.5484 12.5573 4.81763 12.5573L7.27917 12.5573L7.27917 8.32412C7.27917 8.16033 7.34007 8.01859 7.46186 7.8989C7.58366 7.77922 7.72789 7.71937 7.89456 7.71937L10.3561 7.71937C10.5228 7.71937 10.667 7.77922 10.7888 7.8989C10.9106 8.01859 10.9715 8.16033 10.9715 8.32412L10.9715 12.5573L13.433 12.5573C13.7022 12.5573 13.8914 12.6833 14.0003 12.9353C14.1093 13.181 14.0644 13.3983 13.8657 13.5873L9.55802 17.8205C9.44263 17.9402 9.2984 18 9.12533 18C8.95225 18 8.80802 17.9402 8.69263 17.8205L4.38494 13.5873C4.18622 13.3983 4.14135 13.181 4.25032 12.9353Z" stroke="white" stroke-width="2" stroke-linejoin="round"/>
</svg>
