<svg width="19" height="14" viewBox="0 0 19 14" fill="none" xmlns="http://www.w3.org/2000/svg">
<path d="M17.3659 2.78394V11.1173C17.3659 11.6698 17.1464 12.1997 16.7557 12.5904C16.365 12.9811 15.8351 13.2006 15.2826 13.2006H2.78255C2.23002 13.2006 1.70011 12.9811 1.30941 12.5904C0.918712 12.1997 0.699219 11.6698 0.699219 11.1173V2.78394" stroke="white" stroke-width="1.4" stroke-linecap="round" stroke-linejoin="round"/>
<path d="M17.3659 2.78328C17.3659 2.23075 17.1464 1.70085 16.7557 1.31015C16.365 0.919445 15.8351 0.699951 15.2826 0.699951H2.78255C2.23002 0.699951 1.70011 0.919445 1.30941 1.31015C0.918712 1.70085 0.699219 2.23075 0.699219 2.78328L7.92839 7.29717C8.25949 7.50412 8.64209 7.61384 9.03255 7.61384C9.42301 7.61384 9.80561 7.50412 10.1367 7.29717L17.3659 2.78328Z" stroke="white" stroke-width="1.4" stroke-linecap="round" stroke-linejoin="round"/>
</svg>
