<svg width="19" height="19" viewBox="0 0 19 19" fill="none" xmlns="http://www.w3.org/2000/svg">
<path d="M11.2841 16.7189L11.2932 16.7252C12.0803 17.2264 13.0147 17.444 13.9422 17.3421C14.8697 17.2403 15.7346 16.825 16.3942 16.165L16.9671 15.5921C17.0941 15.4652 17.1948 15.3145 17.2635 15.1487C17.3322 14.9829 17.3676 14.8051 17.3676 14.6256C17.3676 14.4461 17.3322 14.2684 17.2635 14.1026C17.1948 13.9368 17.0941 13.7861 16.9671 13.6592L14.5505 11.2445C14.4237 11.1175 14.273 11.0168 14.1072 10.9481C13.9413 10.8793 13.7636 10.844 13.5841 10.844C13.4046 10.844 13.2269 10.8793 13.061 10.9481C12.8952 11.0168 12.7445 11.1175 12.6177 11.2445C12.3614 11.5006 12.014 11.6445 11.6517 11.6445C11.2894 11.6445 10.9419 11.5006 10.6857 11.2445L6.82173 7.3796C6.56558 7.12337 6.42169 6.77591 6.42169 6.41361C6.42169 6.05131 6.56558 5.70384 6.82173 5.44762C6.9487 5.32074 7.04942 5.17007 7.11814 5.00425C7.18685 4.83842 7.22222 4.66068 7.22222 4.48118C7.22222 4.30168 7.18685 4.12393 7.11814 3.95811C7.04942 3.79228 6.9487 3.64162 6.82173 3.51473L4.40607 1.09999C4.14985 0.843846 3.80239 0.699951 3.44009 0.699951C3.07779 0.699951 2.73032 0.843846 2.4741 1.09999L1.90024 1.67293C1.24039 2.33257 0.825333 3.19759 0.723643 4.12505C0.621954 5.05252 0.839721 5.98692 1.34096 6.77386L1.34643 6.78297C3.99361 10.6996 7.36705 14.0724 11.2841 16.7189Z" stroke="#293977" stroke-width="1.4" stroke-linecap="round" stroke-linejoin="round"/>
</svg>
