<svg width="34" height="28" viewBox="0 0 34 28" fill="none" xmlns="http://www.w3.org/2000/svg">
<path d="M26.3932 14.2393C28.4672 14.3989 30.1425 15.0769 31.4188 16.2735C32.6952 17.4701 33.3333 19.0655 33.3333 21.0598C33.3333 23.2934 32.6553 25.0086 31.2991 26.2051C29.943 27.4017 28.2678 28 26.2735 28C23.5613 27.8405 21.6068 26.8433 20.4103 25.0085C19.2137 23.1738 18.6154 21.0997 18.6154 18.7863C18.6154 16.5527 18.9345 14.4786 19.5727 12.5641C20.2906 10.6496 21.208 8.8547 22.3248 7.17949C23.4416 5.50428 24.7179 4.02849 26.1538 2.75214C27.6695 1.47579 29.2251 0.558407 30.8205 0L33.6923 3.94873C32.0969 5.06554 30.5812 6.58121 29.1453 8.49573C27.7892 10.4103 26.8718 12.3248 26.3932 14.2393ZM7.77778 14.2393C9.85185 14.3989 11.5271 15.0769 12.8034 16.2735C14.0798 17.4701 14.7179 19.0655 14.7179 21.0598C14.7179 23.2934 14 25.0086 12.5641 26.2051C11.208 27.4017 9.61254 28 7.77778 28C4.98575 27.9202 2.99145 26.963 1.79487 25.1282C0.59829 23.2137 0 21.0997 0 18.7863C0 16.5527 0.319088 14.4786 0.957264 12.5641C1.67521 10.6496 2.59259 8.8547 3.7094 7.17949C4.82621 5.50428 6.10256 4.02849 7.53846 2.75214C9.05413 1.47579 10.6097 0.558407 12.2051 0L15.0769 3.94873C13.4815 5.06554 11.9658 6.58121 10.5299 8.49573C9.17379 10.4103 8.25641 12.3248 7.77778 14.2393Z" fill="#293977"/>
</svg>
