<svg width="16" height="16" viewBox="0 0 16 16" fill="none" xmlns="http://www.w3.org/2000/svg">
<path d="M15.8599 9.8026V15.7098C15.8599 15.8549 15.7421 15.9793 15.6047 15.9793H12.719C12.5816 15.9793 12.4638 15.8549 12.4638 15.7098V10.2171C12.4638 8.76625 11.973 7.77135 10.7363 7.77135C9.79405 7.77135 9.2444 8.43462 8.9892 9.07716C8.89105 9.30515 8.87142 9.63679 8.87142 9.94769V15.7098C8.87142 15.8549 8.75363 15.9793 8.61622 15.9793H5.75016C5.61275 15.9793 5.49496 15.8549 5.49496 15.7098C5.49496 14.2382 5.53422 7.12881 5.49496 5.47064C5.49496 5.32556 5.61275 5.20119 5.75016 5.20119H8.63585C8.77326 5.20119 8.89105 5.32556 8.89105 5.47064V6.735C8.89105 6.75572 8.87142 6.75572 8.87142 6.77645H8.89105V6.735C9.34255 6.00955 10.1474 4.95247 11.9534 4.95247C14.1913 4.95247 15.8599 6.507 15.8599 9.8026ZM0.469542 16H3.35523C3.49265 16 3.61043 15.8756 3.61043 15.7305V5.47064C3.61043 5.32556 3.49265 5.20119 3.35523 5.20119H0.469542C0.332128 5.20119 0.214345 5.32556 0.214345 5.47064V15.7305C0.233976 15.8756 0.332128 16 0.469542 16Z" fill="#173B87"/>
<path d="M1.82564 3.85524C2.83391 3.85524 3.65128 2.99221 3.65128 1.92762C3.65128 0.863024 2.83391 0 1.82564 0C0.817367 0 0 0.863024 0 1.92762C0 2.99221 0.817367 3.85524 1.82564 3.85524Z" fill="#173B87"/>
</svg>
