<svg width="138" height="34" viewBox="0 0 138 34" fill="none" xmlns="http://www.w3.org/2000/svg">
<path d="M44.2735 10.1205H46.0515L47.8575 17.7645H47.8855L49.9015 10.1205H51.6935L53.6535 17.7645H53.6815L55.5435 10.1205H57.3215L54.5635 20.1165H52.7855L50.7835 12.4725H50.7555L48.7115 20.1165H46.9055L44.2735 10.1205ZM58.2502 10.1205H59.8462V13.8305H59.8742C60.0702 13.5085 60.3502 13.2425 60.7422 13.0185C61.1342 12.7945 61.5682 12.6825 62.0442 12.6825C62.8282 12.6965 63.4582 12.8925 63.9202 13.2985C64.3682 13.7185 64.6062 14.3345 64.6062 15.1465V20.1165H63.0102V15.5665C62.9822 15.0065 62.8702 14.5865 62.6462 14.3345C62.4222 14.0825 62.0722 13.9425 61.5962 13.9425C61.3162 13.9425 61.0782 13.9985 60.8682 14.0965C60.6442 14.1945 60.4622 14.3345 60.3222 14.5025C60.1682 14.6705 60.0562 14.8805 59.9722 15.1045C59.8882 15.3425 59.8462 15.5945 59.8462 15.8465V20.1165H58.2502V10.1205ZM72.3512 18.5065C72.3512 18.7025 72.3652 18.8425 72.4212 18.9265C72.4772 19.0105 72.5752 19.0525 72.7292 19.0525H72.8972C72.9532 19.0525 73.0372 19.0525 73.1212 19.0245V20.1305C73.0512 20.1585 72.9812 20.1725 72.8972 20.2005C72.8132 20.2285 72.7152 20.2425 72.6312 20.2565C72.5332 20.2845 72.4352 20.2985 72.3512 20.2985C72.2532 20.3125 72.1692 20.3125 72.1132 20.3125C71.7772 20.3125 71.5112 20.2565 71.3012 20.1165C71.0772 19.9905 70.9372 19.7665 70.8812 19.4305C70.5592 19.7385 70.1672 19.9625 69.7052 20.1025C69.2432 20.2425 68.7952 20.3125 68.3752 20.3125C68.0392 20.3125 67.7312 20.2705 67.4372 20.1865C67.1292 20.1025 66.8632 19.9625 66.6392 19.7945C66.4152 19.6265 66.2332 19.4025 66.0932 19.1365C65.9532 18.8705 65.8972 18.5625 65.8972 18.1985C65.8972 17.7505 65.9672 17.3865 66.1352 17.1065C66.3032 16.8265 66.5132 16.6165 66.7792 16.4485C67.0452 16.2945 67.3392 16.1825 67.6752 16.1125C68.0112 16.0425 68.3472 15.9865 68.6832 15.9445C68.9632 15.8885 69.2432 15.8605 69.5092 15.8325C69.7612 15.8045 69.9992 15.7625 70.1952 15.7065C70.3912 15.6505 70.5592 15.5665 70.6712 15.4545C70.7832 15.3425 70.8532 15.1605 70.8532 14.9225C70.8532 14.7265 70.7972 14.5585 70.6992 14.4185C70.6012 14.2925 70.4752 14.1945 70.3352 14.1245C70.1952 14.0545 70.0272 14.0125 69.8592 13.9845C69.6772 13.9565 69.5092 13.9425 69.3552 13.9425C68.9072 13.9425 68.5292 14.0405 68.2492 14.2225C67.9552 14.4185 67.7872 14.6985 67.7592 15.0905H66.1632C66.1912 14.6285 66.3032 14.2365 66.4992 13.9285C66.6952 13.6205 66.9332 13.3825 67.2412 13.1865C67.5492 13.0045 67.8852 12.8785 68.2772 12.7945C68.6552 12.7245 69.0472 12.6825 69.4532 12.6825C69.8032 12.6965 70.1532 12.7245 70.5032 12.7945C70.8392 12.8785 71.1472 13.0045 71.4272 13.1585C71.7072 13.3265 71.9312 13.5505 72.0992 13.8165C72.2672 14.0825 72.3512 14.4045 72.3512 14.7825V18.5065ZM70.7552 16.4905C70.5032 16.6585 70.2092 16.7565 69.8592 16.7845C69.4952 16.8125 69.1452 16.8685 68.7952 16.9245C68.6272 16.9525 68.4592 16.9945 68.3052 17.0505C68.1372 17.1065 67.9972 17.1765 67.8852 17.2605C67.7592 17.3445 67.6612 17.4705 67.5912 17.6105C67.5212 17.7505 67.4932 17.9325 67.4932 18.1285C67.4932 18.3105 67.5352 18.4645 67.6472 18.5765C67.7452 18.7025 67.8712 18.8005 68.0112 18.8705C68.1512 18.9405 68.3192 18.9825 68.4872 19.0105C68.6552 19.0385 68.8232 19.0525 68.9632 19.0525C69.1312 19.0525 69.3272 19.0385 69.5372 18.9825C69.7332 18.9405 69.9292 18.8565 70.1112 18.7445C70.2932 18.6325 70.4472 18.4925 70.5732 18.3245C70.6852 18.1565 70.7552 17.9325 70.7552 17.6805V16.4905ZM73.3405 12.8785H74.5445V10.7085H76.1405V12.8785H77.5825V14.0685H76.1405V17.9325C76.1405 18.1005 76.1405 18.2545 76.1545 18.3665C76.1685 18.4925 76.1965 18.5905 76.2525 18.6745C76.3085 18.7585 76.3785 18.8285 76.4905 18.8705C76.5885 18.9125 76.7285 18.9265 76.9105 18.9265C77.0225 18.9265 77.1345 18.9265 77.2465 18.9265C77.3585 18.9265 77.4705 18.8985 77.5825 18.8705V20.1025C77.4005 20.1305 77.2325 20.1445 77.0645 20.1585C76.8965 20.1865 76.7145 20.1865 76.5465 20.1865C76.1265 20.1865 75.7765 20.1585 75.5245 20.0745C75.2725 19.9905 75.0625 19.8785 74.9225 19.7245C74.7825 19.5705 74.6845 19.3745 74.6285 19.1365C74.5725 18.9125 74.5445 18.6465 74.5445 18.3385V14.0685H73.3405V12.8785ZM79.9346 17.7925C79.9766 18.2685 80.1586 18.5905 80.4666 18.7725C80.7746 18.9685 81.1386 19.0525 81.5726 19.0525C81.7126 19.0525 81.8806 19.0525 82.0766 19.0245C82.2726 18.9965 82.4546 18.9545 82.6226 18.8845C82.7906 18.8285 82.9166 18.7305 83.0286 18.6045C83.1406 18.4785 83.1826 18.3105 83.1826 18.1005C83.1686 17.9045 83.0846 17.7365 82.9586 17.5965C82.8186 17.4705 82.6366 17.3725 82.4126 17.2885C82.1886 17.2045 81.9506 17.1345 81.6706 17.0785C81.3906 17.0225 81.0966 16.9665 80.8166 16.8965C80.5086 16.8405 80.2286 16.7565 79.9486 16.6585C79.6686 16.5745 79.4306 16.4485 79.2066 16.2805C78.9826 16.1265 78.8146 15.9305 78.6886 15.6785C78.5486 15.4265 78.4926 15.1185 78.4926 14.7545C78.4926 14.3625 78.5766 14.0405 78.7726 13.7745C78.9686 13.5085 79.2066 13.2985 79.5006 13.1305C79.7946 12.9625 80.1166 12.8505 80.4806 12.7805C80.8446 12.7245 81.1806 12.6825 81.5166 12.6825C81.8806 12.6825 82.2446 12.7245 82.5806 12.8085C82.9166 12.8925 83.2246 13.0185 83.5046 13.1865C83.7846 13.3685 84.0086 13.6065 84.1906 13.8865C84.3726 14.1665 84.4846 14.5165 84.5406 14.9085H82.8746C82.7906 14.5305 82.6226 14.2785 82.3426 14.1385C82.0626 14.0125 81.7546 13.9425 81.4046 13.9425C81.2926 13.9425 81.1526 13.9565 80.9986 13.9705C80.8446 13.9985 80.7046 14.0265 80.5646 14.0825C80.4246 14.1385 80.3126 14.2085 80.2286 14.3065C80.1306 14.4045 80.0886 14.5305 80.0886 14.6845C80.0886 14.8805 80.1446 15.0485 80.2846 15.1605C80.4246 15.2865 80.5926 15.3845 80.8166 15.4685C81.0406 15.5525 81.2926 15.6225 81.5726 15.6645C81.8526 15.7345 82.1326 15.7905 82.4406 15.8465C82.7206 15.9165 83.0146 16.0005 83.2946 16.0845C83.5746 16.1825 83.8126 16.3085 84.0366 16.4625C84.2606 16.6305 84.4286 16.8265 84.5686 17.0645C84.7086 17.3165 84.7786 17.6105 84.7786 17.9605C84.7786 18.3945 84.6806 18.7585 84.4846 19.0525C84.2886 19.3605 84.0226 19.5985 83.7146 19.7805C83.4066 19.9765 83.0566 20.1025 82.6786 20.1865C82.2866 20.2705 81.9086 20.3125 81.5446 20.3125C81.0826 20.3125 80.6626 20.2705 80.2706 20.1585C79.8786 20.0605 79.5426 19.9065 79.2626 19.6965C78.9826 19.4865 78.7586 19.2205 78.5906 18.9125C78.4226 18.6045 78.3386 18.2265 78.3386 17.7925H79.9346ZM88.8884 10.1205H90.7504L94.6004 20.1165H92.7244L91.7864 17.4705H87.7964L86.8584 20.1165H85.0524L88.8884 10.1205ZM88.2724 16.1405H91.3244L89.8264 11.8425H89.7844L88.2724 16.1405ZM95.3703 12.8785H96.8823V13.8585H96.9103C97.1343 13.4385 97.4423 13.1445 97.8483 12.9625C98.2403 12.7805 98.6743 12.6825 99.1503 12.6825C99.7103 12.6965 100.214 12.7945 100.634 12.9905C101.054 13.1865 101.418 13.4665 101.698 13.8165C101.978 14.1665 102.188 14.5725 102.328 15.0345C102.468 15.5105 102.538 16.0005 102.538 16.5325C102.538 17.0225 102.468 17.4985 102.342 17.9465C102.216 18.4085 102.02 18.8145 101.768 19.1645C101.516 19.5145 101.194 19.7945 100.802 20.0045C100.41 20.2145 99.9483 20.3125 99.4163 20.3125C99.1783 20.3125 98.9403 20.2985 98.7163 20.2565C98.4783 20.2145 98.2543 20.1445 98.0443 20.0465C97.8203 19.9625 97.6243 19.8365 97.4423 19.6965C97.2603 19.5565 97.1063 19.3745 96.9943 19.1785H96.9663V22.7905H95.3703V12.8785ZM100.942 16.5045C100.942 16.1825 100.9 15.8605 100.816 15.5525C100.732 15.2445 100.606 14.9785 100.438 14.7405C100.27 14.5025 100.06 14.3065 99.8083 14.1665C99.5563 14.0265 99.2623 13.9425 98.9403 13.9425C98.2683 13.9425 97.7503 14.1805 97.4143 14.6425C97.0783 15.1185 96.9103 15.7345 96.9103 16.5045C96.9103 16.8685 96.9523 17.2185 97.0363 17.5265C97.1203 17.8345 97.2603 18.1005 97.4423 18.3245C97.6103 18.5485 97.8203 18.7305 98.0723 18.8565C98.3243 18.9965 98.6043 19.0525 98.9403 19.0525C99.3043 19.0525 99.6123 18.9825 99.8643 18.8285C100.116 18.6885 100.312 18.4925 100.48 18.2545C100.648 18.0165 100.76 17.7505 100.83 17.4425C100.9 17.1345 100.942 16.8265 100.942 16.5045ZM103.929 12.8785H105.441V13.8585H105.469C105.693 13.4385 106.001 13.1445 106.407 12.9625C106.799 12.7805 107.233 12.6825 107.709 12.6825C108.269 12.6965 108.773 12.7945 109.193 12.9905C109.613 13.1865 109.977 13.4665 110.257 13.8165C110.537 14.1665 110.747 14.5725 110.887 15.0345C111.027 15.5105 111.097 16.0005 111.097 16.5325C111.097 17.0225 111.027 17.4985 110.901 17.9465C110.775 18.4085 110.579 18.8145 110.327 19.1645C110.075 19.5145 109.753 19.7945 109.361 20.0045C108.969 20.2145 108.507 20.3125 107.975 20.3125C107.737 20.3125 107.499 20.2985 107.275 20.2565C107.037 20.2145 106.813 20.1445 106.603 20.0465C106.379 19.9625 106.183 19.8365 106.001 19.6965C105.819 19.5565 105.665 19.3745 105.553 19.1785H105.525V22.7905H103.929V12.8785ZM109.501 16.5045C109.501 16.1825 109.459 15.8605 109.375 15.5525C109.291 15.2445 109.165 14.9785 108.997 14.7405C108.829 14.5025 108.619 14.3065 108.367 14.1665C108.115 14.0265 107.821 13.9425 107.499 13.9425C106.827 13.9425 106.309 14.1805 105.973 14.6425C105.637 15.1185 105.469 15.7345 105.469 16.5045C105.469 16.8685 105.511 17.2185 105.595 17.5265C105.679 17.8345 105.819 18.1005 106.001 18.3245C106.169 18.5485 106.379 18.7305 106.631 18.8565C106.883 18.9965 107.163 19.0525 107.499 19.0525C107.863 19.0525 108.171 18.9825 108.423 18.8285C108.675 18.6885 108.871 18.4925 109.039 18.2545C109.207 18.0165 109.319 17.7505 109.389 17.4425C109.459 17.1345 109.501 16.8265 109.501 16.5045Z" fill="black"/>
<g clip-path="url(#clip0_40_4790)">
<path d="M1.70013 16.8016C1.69942 19.4652 2.37035 22.0661 3.6461 24.3585L1.57812 32.191L9.30514 30.0893C11.4423 31.2962 13.8369 31.9286 16.2703 31.9288H16.2767C24.3096 31.9288 30.8487 25.148 30.8521 16.8135C30.8537 12.7748 29.3389 8.97716 26.5867 6.11998C23.835 3.26305 20.1753 1.68885 16.2761 1.68701C8.24213 1.68701 1.70357 8.46746 1.70025 16.8016" fill="url(#paint0_linear_40_4790)"/>
<path d="M1.17753 16.7967C1.1767 19.5562 1.87167 22.2501 3.19291 24.6246L1.05078 32.7379L9.05486 30.5609C11.2602 31.8082 13.7433 32.4658 16.2699 32.4668H16.2764C24.5976 32.4668 31.3716 25.4421 31.3751 16.8093C31.3765 12.6255 29.8072 8.69128 26.9568 5.73175C24.1059 2.77258 20.3154 1.14173 16.2764 1.14001C7.95383 1.14001 1.18084 8.16376 1.17753 16.7967ZM5.94425 24.2157L5.64539 23.7235C4.38906 21.6513 3.72596 19.2566 3.7269 16.7977C3.72951 9.62221 9.35894 3.78436 16.2812 3.78436C19.6334 3.78584 22.7838 5.14144 25.1534 7.60098C27.5229 10.0608 28.8267 13.3306 28.8258 16.8083C28.8228 23.9838 23.1932 29.8224 16.2764 29.8224H16.2715C14.0193 29.8211 11.8105 29.1937 9.88416 28.0081L9.42574 27.726L4.67596 29.0179L5.94425 24.2157Z" fill="url(#paint1_linear_40_4790)"/>
<path d="M12.5018 10.2512C12.2192 9.5996 11.9218 9.58645 11.653 9.57502C11.4329 9.56519 11.1813 9.56593 10.93 9.56593C10.6784 9.56593 10.2696 9.66411 9.92404 10.0555C9.57816 10.4472 8.60352 11.3939 8.60352 13.3193C8.60352 15.2446 9.95544 17.1055 10.1439 17.3669C10.3326 17.6278 12.7538 21.7054 16.5884 23.274C19.7753 24.5777 20.4238 24.3184 21.1155 24.253C21.8073 24.1879 23.3477 23.3066 23.6619 22.3927C23.9764 21.479 23.9764 20.6958 23.8821 20.5321C23.7878 20.3691 23.5362 20.2711 23.159 20.0755C22.7817 19.8799 20.9268 18.933 20.581 18.8024C20.2351 18.6719 19.9837 18.6067 19.7321 18.9986C19.4805 19.3898 18.758 20.2711 18.5378 20.5321C18.3178 20.7937 18.0976 20.8263 17.7205 20.6305C17.343 20.4342 16.128 20.0214 14.6865 18.6883C13.565 17.651 12.8078 16.37 12.5877 15.9781C12.3676 15.5869 12.5642 15.3748 12.7533 15.1798C12.9228 15.0044 13.1307 14.7228 13.3195 14.4943C13.5076 14.2658 13.5704 14.1027 13.6962 13.8417C13.8221 13.5805 13.7591 13.3519 13.665 13.1562C13.5704 12.9605 12.8373 11.025 12.5018 10.2512Z" fill="white"/>
</g>
<defs>
<linearGradient id="paint0_linear_40_4790" x1="1465.28" y1="3052.09" x2="1465.28" y2="1.68701" gradientUnits="userSpaceOnUse">
<stop stop-color="#1FAF38"/>
<stop offset="1" stop-color="#60D669"/>
</linearGradient>
<linearGradient id="paint1_linear_40_4790" x1="1517.27" y1="3160.93" x2="1517.27" y2="1.14001" gradientUnits="userSpaceOnUse">
<stop stop-color="#F9F9F9"/>
<stop offset="1" stop-color="white"/>
</linearGradient>
<clipPath id="clip0_40_4790">
<rect width="31.7027" height="33.0811" fill="white"/>
</clipPath>
</defs>
</svg>
