<svg width="11" height="11" viewBox="0 0 11 11" fill="none" xmlns="http://www.w3.org/2000/svg">
<path d="M11 7.0331V10.8143C11 10.9071 10.9172 10.9867 10.8206 10.9867H8.79172C8.69511 10.9867 8.6123 10.9071 8.6123 10.8143V7.29844C8.6123 6.36974 8.26725 5.73291 7.39774 5.73291C6.73526 5.73291 6.34881 6.15746 6.16939 6.56875C6.10038 6.71469 6.08658 6.92696 6.08658 7.12597V10.8143C6.08658 10.9071 6.00376 10.9867 5.90715 10.9867H3.8921C3.79548 10.9867 3.71267 10.9071 3.71267 10.8143C3.71267 9.87228 3.74028 5.32163 3.71267 4.26025C3.71267 4.16738 3.79548 4.08778 3.8921 4.08778H5.92095C6.01757 4.08778 6.10038 4.16738 6.10038 4.26025V5.06955C6.10038 5.08282 6.08658 5.08282 6.08658 5.09609H6.10038V5.06955C6.41782 4.6052 6.98369 3.92857 8.25345 3.92857C9.82685 3.92857 11 4.92361 11 7.0331ZM0.179423 11H2.20828C2.30489 11 2.3877 10.9204 2.3877 10.8275V4.26025C2.3877 4.16738 2.30489 4.08778 2.20828 4.08778H0.179423C0.0828104 4.08778 0 4.16738 0 4.26025V10.8275C0.0138018 10.9204 0.0828104 11 0.179423 11Z" fill="white"/>
<path d="M1.46667 3.14286C2.27668 3.14286 2.93333 2.4393 2.93333 1.57143C2.93333 0.703553 2.27668 0 1.46667 0C0.656649 0 0 0.703553 0 1.57143C0 2.4393 0.656649 3.14286 1.46667 3.14286Z" fill="white"/>
</svg>
