<svg width="20" height="19" viewBox="0 0 20 19" fill="none" xmlns="http://www.w3.org/2000/svg">
<path d="M19.2896 11.2905V18.0933C19.2896 18.2604 19.1464 18.4036 18.9793 18.4036H15.4705C15.3034 18.4036 15.1602 18.2604 15.1602 18.0933V11.7679C15.1602 10.0971 14.5634 8.95133 13.0597 8.95133C11.9139 8.95133 11.2456 9.71515 10.9353 10.4551C10.8159 10.7177 10.7921 11.0996 10.7921 11.4576V18.0933C10.7921 18.2604 10.6488 18.4036 10.4818 18.4036H6.99682C6.82973 18.4036 6.68651 18.2604 6.68651 18.0933C6.68651 16.3986 6.73425 8.21137 6.68651 6.30181C6.68651 6.13473 6.82973 5.99151 6.99682 5.99151H10.5056C10.6727 5.99151 10.8159 6.13473 10.8159 6.30181V7.75785C10.8159 7.78172 10.7921 7.78172 10.7921 7.80559H10.8159V7.75785C11.3649 6.92242 12.3436 5.70508 14.5396 5.70508C17.2607 5.70508 19.2896 7.49529 19.2896 11.2905ZM0.575928 18.4275H4.08474C4.25183 18.4275 4.39504 18.2843 4.39504 18.1172V6.30181C4.39504 6.13473 4.25183 5.99151 4.08474 5.99151H0.575928C0.408842 5.99151 0.265625 6.13473 0.265625 6.30181V18.1172C0.289494 18.2843 0.408842 18.4275 0.575928 18.4275Z" fill="#293977"/>
<path d="M2.21986 4.43972C3.44586 4.43972 4.43972 3.44586 4.43972 2.21986C4.43972 0.993866 3.44586 0 2.21986 0C0.993865 0 0 0.993866 0 2.21986C0 3.44586 0.993865 4.43972 2.21986 4.43972Z" fill="#293977"/>
</svg>
