<svg width="16" height="19" viewBox="0 0 16 19" fill="none" xmlns="http://www.w3.org/2000/svg">
<path d="M14.4207 7.98951C14.4207 13.3683 8.91155 16.6821 7.76666 17.3133C7.70324 17.3483 7.63198 17.3666 7.55955 17.3666C7.48712 17.3666 7.41587 17.3483 7.35244 17.3133C6.20669 16.6821 0.699219 13.3683 0.699219 7.98951C0.699219 3.70153 3.272 0.699951 7.55998 0.699951C11.848 0.699951 14.4207 3.70153 14.4207 7.98951Z" stroke="white" stroke-width="1.4" stroke-linecap="round" stroke-linejoin="round"/>
<path d="M4.12891 7.56002C4.12891 8.46981 4.49032 9.34234 5.13364 9.98566C5.77696 10.629 6.64949 10.9904 7.55929 10.9904C8.46908 10.9904 9.34161 10.629 9.98493 9.98566C10.6283 9.34234 10.9897 8.46981 10.9897 7.56002C10.9897 6.65023 10.6283 5.77769 9.98493 5.13437C9.34161 4.49105 8.46908 4.12964 7.55929 4.12964C6.64949 4.12964 5.77696 4.49105 5.13364 5.13437C4.49032 5.77769 4.12891 6.65023 4.12891 7.56002V7.56002Z" stroke="white" stroke-width="1.4" stroke-linecap="round" stroke-linejoin="round"/>
</svg>
