<svg width="21" height="21" viewBox="0 0 21 21" fill="none" xmlns="http://www.w3.org/2000/svg">
<path d="M15.93 3.59308C15.6835 3.59308 15.4426 3.66616 15.2377 3.80309C15.0327 3.94002 14.873 4.13464 14.7787 4.36235C14.6844 4.59005 14.6597 4.84061 14.7078 5.08234C14.7559 5.32407 14.8746 5.54612 15.0488 5.72039C15.2231 5.89467 15.4452 6.01336 15.6869 6.06144C15.9286 6.10952 16.1792 6.08484 16.4069 5.99053C16.6346 5.89621 16.8292 5.73649 16.9661 5.53156C17.1031 5.32663 17.1762 5.0857 17.1762 4.83923C17.1762 4.50873 17.0449 4.19177 16.8112 3.95807C16.5775 3.72437 16.2605 3.59308 15.93 3.59308ZM20.7069 6.10615C20.6867 5.24454 20.5254 4.39207 20.2292 3.58269C19.9652 2.89018 19.5542 2.2631 19.0246 1.74462C18.5104 1.21233 17.8818 0.803952 17.1865 0.550385C16.3793 0.245244 15.5259 0.0801796 14.6631 0.0623076C13.5623 -5.80286e-08 13.2092 0 10.3846 0C7.56 0 7.20692 -5.80286e-08 6.10615 0.0623076C5.24335 0.0801796 4.38993 0.245244 3.58269 0.550385C2.88866 0.80652 2.26066 1.21454 1.74462 1.74462C1.21233 2.25884 0.803952 2.88738 0.550385 3.58269C0.245244 4.38993 0.0801796 5.24335 0.0623076 6.10615C-5.80286e-08 7.20692 0 7.56 0 10.3846C0 13.2092 -5.80286e-08 13.5623 0.0623076 14.6631C0.0801796 15.5259 0.245244 16.3793 0.550385 17.1865C0.803952 17.8818 1.21233 18.5104 1.74462 19.0246C2.26066 19.5547 2.88866 19.9627 3.58269 20.2188C4.38993 20.524 5.24335 20.6891 6.10615 20.7069C7.20692 20.7692 7.56 20.7692 10.3846 20.7692C13.2092 20.7692 13.5623 20.7692 14.6631 20.7069C15.5259 20.6891 16.3793 20.524 17.1865 20.2188C17.8818 19.9653 18.5104 19.5569 19.0246 19.0246C19.5566 18.5081 19.9679 17.8804 20.2292 17.1865C20.5254 16.3772 20.6867 15.5247 20.7069 14.6631C20.7069 13.5623 20.7692 13.2092 20.7692 10.3846C20.7692 7.56 20.7692 7.20692 20.7069 6.10615ZM18.8377 14.5385C18.8301 15.1976 18.7107 15.8508 18.4846 16.47C18.3188 16.9219 18.0525 17.3303 17.7058 17.6642C17.3689 18.0074 16.9614 18.2732 16.5115 18.4431C15.8923 18.6692 15.2392 18.7886 14.58 18.7962C13.5415 18.8481 13.1573 18.8585 10.4262 18.8585C7.695 18.8585 7.31077 18.8585 6.27231 18.7962C5.58785 18.809 4.90631 18.7036 4.25769 18.4846C3.82754 18.3061 3.43872 18.041 3.11538 17.7058C2.77071 17.3722 2.50772 16.9635 2.34692 16.5115C2.09339 15.8834 1.95277 15.2155 1.93154 14.5385C1.93154 13.5 1.86923 13.1158 1.86923 10.3846C1.86923 7.65346 1.86923 7.26923 1.93154 6.23077C1.93619 5.55686 2.05922 4.88902 2.295 4.25769C2.47782 3.81937 2.75843 3.42864 3.11538 3.11538C3.43088 2.75833 3.8208 2.47475 4.25769 2.28462C4.89069 2.0562 5.55784 1.93681 6.23077 1.93154C7.26923 1.93154 7.65346 1.86923 10.3846 1.86923C13.1158 1.86923 13.5 1.86923 14.5385 1.93154C15.1976 1.9391 15.8508 2.05849 16.47 2.28462C16.9419 2.45975 17.3655 2.74449 17.7058 3.11538C18.0461 3.43438 18.312 3.82438 18.4846 4.25769C18.7154 4.89005 18.8349 5.55762 18.8377 6.23077C18.8896 7.26923 18.9 7.65346 18.9 10.3846C18.9 13.1158 18.8896 13.5 18.8377 14.5385ZM10.3846 5.05731C9.33142 5.05936 8.30246 5.37355 7.42776 5.96016C6.55305 6.54678 5.87185 7.37951 5.47023 8.35313C5.06862 9.32675 4.9646 10.3976 5.17132 11.4303C5.37805 12.463 5.88624 13.4112 6.63169 14.1552C7.37714 14.8992 8.3264 15.4056 9.35951 15.6103C10.3926 15.815 11.4632 15.7089 12.4361 15.3054C13.4089 14.9019 14.2403 14.2191 14.8252 13.3432C15.4101 12.4674 15.7223 11.4378 15.7223 10.3846C15.7237 9.68376 15.5865 8.98955 15.3186 8.34192C15.0507 7.69428 14.6574 7.10599 14.1614 6.6109C13.6653 6.1158 13.0763 5.72367 12.4281 5.45704C11.7799 5.19042 11.0855 5.05457 10.3846 5.05731ZM10.3846 13.8427C9.70067 13.8427 9.03209 13.6399 8.46341 13.2599C7.89473 12.8799 7.4515 12.3398 7.18977 11.708C6.92803 11.0761 6.85955 10.3808 6.99298 9.70998C7.12641 9.03918 7.45576 8.42301 7.93938 7.93938C8.42301 7.45576 9.03918 7.12641 9.70998 6.99298C10.3808 6.85955 11.0761 6.92803 11.708 7.18977C12.3398 7.4515 12.8799 7.89473 13.2599 8.46341C13.6399 9.03209 13.8427 9.70067 13.8427 10.3846C13.8427 10.8387 13.7532 11.2884 13.5795 11.708C13.4057 12.1275 13.151 12.5087 12.8298 12.8298C12.5087 13.151 12.1275 13.4057 11.708 13.5795C11.2884 13.7532 10.8387 13.8427 10.3846 13.8427Z" fill="#173B87"/>
</svg>
